<svg id="Layer_1" data-name="Layer 1" xmlns="http://www.w3.org/2000/svg" viewBox="0 0 127.75 39.36"><defs><style>.cls-1{fill:#5b371a;}.cls-2{fill:#fed7b0;}.cls-3{fill:#e9bd90;}.cls-4,.cls-5{fill:#fff;}.cls-5{opacity:0.2;}.cls-6{fill:#3a2212;}.cls-7{font-size:21px;fill:#212121;font-family:MuseoSansRounded-700, Museo Sans Rounded;}.cls-8{letter-spacing:0.01em;}.cls-9{letter-spacing:-0.01em;}.cls-10{letter-spacing:-0.01em;}</style></defs><title>truegains-logo</title><path class="cls-1" d="M5.72,21.32c-1.35-1.3-1.18-3.75-1.3-5.45-.14-2-.49-4.22-1.94-5.71a5,5,0,0,1,1.8.59,6.88,6.88,0,0,1,.43-3.24l4,2.81Z" transform="translate(-0.55 -0.32)"/><path class="cls-2" d="M32.11,20.69a2.1,2.1,0,0,0-3.24-1c-1.24.88-1.45,2.54-1.53,3.93-.21-.41-.42-.82-.64-1.23l.53-2.29a21.29,21.29,0,0,0,.7-3,4.69,4.69,0,0,0-.49-1.72l-.89-2.57-4-2.1a5.77,5.77,0,0,0-1.36-.73,5.58,5.58,0,0,0-1.51.19c-2.74.33-5.44.59-8.2.76l-4.61.28A11,11,0,0,0,5.22,16c-.13.85-.26,1.72-.31,2.58a11.84,11.84,0,0,0,.3,2.78c.32,2-.14,3.93-.12,5.91A9.06,9.06,0,0,0,6.58,32,21.24,21.24,0,0,0,9.79,35.9a15.06,15.06,0,0,0,3.37,2.73c3.22,1.76,6.77.13,9.3-2.13A28.67,28.67,0,0,0,26.38,32a10.54,10.54,0,0,0,2.16-5.26c1.23,1.15,2.57-.53,3.09-1.53A5.54,5.54,0,0,0,32.11,20.69Z" transform="translate(-0.55 -0.32)"/><path class="cls-3" d="M7.59,19.7l-1.2-.23-1.2.79a9,9,0,0,1,.38,2.23c0,.83,0,1.67-.06,2.5a5.84,5.84,0,0,1,1.23-.52,6.46,6.46,0,0,1,0-2.4,10,10,0,0,1,1-2.25Z" transform="translate(-0.55 -0.32)"/><path class="cls-3" d="M10.89,28c-.19,1.71,3.85.55,4.57.32.07,1.1-2.4,1.28-3,1.24C11.58,29.53,10.64,29,10.89,28Z" transform="translate(-0.55 -0.32)"/><path class="cls-3" d="M29.75,20.49a1.76,1.76,0,0,0-.78,1,3.27,3.27,0,0,0-.26,1,2.17,2.17,0,0,0,.12,1.13,1.53,1.53,0,0,1,.22.9c0,1.61,1.33,0,1.61-.7a3.13,3.13,0,0,0-.22-3.44A1.62,1.62,0,0,0,29.75,20.49Z" transform="translate(-0.55 -0.32)"/><path class="cls-3" d="M21.54,19.41,17.46,19,14,21.53a11,11,0,0,0,.72,3,8.51,8.51,0,0,1,5.14,0,5.17,5.17,0,0,1,3,1.61,5.41,5.41,0,0,1,1,3.14c.18,4.63-3.66,10.05-8.63,10L17.56,39a2.77,2.77,0,0,0,1.25-.33l2.37-1.54A14.55,14.55,0,0,0,22.8,36a13.36,13.36,0,0,0,1.28-1.52c.49-.58,1-1.14,1.48-1.75a23.75,23.75,0,0,0,2-3.48,14.46,14.46,0,0,0,.85-2.39c.12-.48-.13-.66-.38-1.06a4.18,4.18,0,0,1-.54-2.7s-2,1.62-2,1.62c-.34-2.09.26-4.13.51-6.21a6.55,6.55,0,0,0-.11-2.61,11.13,11.13,0,0,0-.65-1.81A8.27,8.27,0,0,0,24.35,13a8.6,8.6,0,0,0-2.9-1.67S21.46,16.56,21.54,19.41Z" transform="translate(-0.55 -0.32)"/><path class="cls-4" d="M20,31.68c-.4-1.4-3.89-.3-4.82-.19a11.92,11.92,0,0,1-5.52-.7,3.68,3.68,0,0,0,1.58,2.78,6.88,6.88,0,0,0,3.55,1,6.36,6.36,0,0,0,3.55-.52C19.25,33.61,20.32,32.84,20,31.68Z" transform="translate(-0.55 -0.32)"/><path class="cls-1" d="M27.46,23.26c-.62.53-1.31,1.24-1.93,1.77-1-2.78,1-5.64.58-8.47a5.91,5.91,0,0,0-5.29-5.24,13.74,13.74,0,0,0-4.42.88,20.08,20.08,0,0,1-4.21.74c-2.78.16-5.47-.49-6.89-3.17-1.23-2.32-1.36-5-3.89-6.38C5,1.81,9.85,1.46,13.5,3.21A3.38,3.38,0,0,0,13.58.86c6.52.79,9,3.49,9,3.49.79-.16.6-1.67.6-1.67A9.38,9.38,0,0,1,27.8,8,2.71,2.71,0,0,1,30,7.71a2.33,2.33,0,0,0-.44,1c1.64.35,3.07.84,3.67,2.41L31.54,11a6.5,6.5,0,0,1,.6,3.89,13.81,13.81,0,0,1-1,4.2,2.26,2.26,0,0,0-2.59.57A5.16,5.16,0,0,0,27.46,23.26Z" transform="translate(-0.55 -0.32)"/><path class="cls-5" d="M31.14,11.17l1.63.06c-.58-1.52-2-2-3.56-2.31A2.45,2.45,0,0,1,29.63,8a2.65,2.65,0,0,0-2.11.24A9.07,9.07,0,0,0,23,3.13s.19,1.46-.58,1.61c0,0-2.36-2.6-8.67-3.37a3.24,3.24,0,0,1-.09,2.27A14.84,14.84,0,0,0,2,3.82C4.27,5.1,4.52,7.36,5.52,9.53a5.06,5.06,0,0,0,2.55,2.7,9.86,9.86,0,0,0,4.21.51,4.46,4.46,0,0,1-3.1-1.42A5.79,5.79,0,0,1,7.76,8.78c-.39-1.3-.8-3.15-2-3.95a11.24,11.24,0,0,1,8.59.46,2,2,0,0,0,.82-2A20,20,0,0,1,22.6,6.34c.79,0,1.11-1.19,1.14-1.37a12.82,12.82,0,0,1,3.51,4.59,4.92,4.92,0,0,1,1.26-.78,1.9,1.9,0,0,0-.14.82,8.34,8.34,0,0,1,3,.63l-1.7-.09c2.3,2.58,1.61,5.41.84,8.41l.33,0C31.47,16.4,32.47,13.26,31.14,11.17Z" transform="translate(-0.55 -0.32)"/><path class="cls-4" d="M18.39,19.35A4.53,4.53,0,0,0,15.57,21a4.8,4.8,0,0,0-.75,3.59A14.27,14.27,0,0,1,18,24.29a16.26,16.26,0,0,1,3.43.86C21.67,22.58,21.54,19.41,18.39,19.35Z" transform="translate(-0.55 -0.32)"/><path class="cls-4" d="M8,19.84A3.78,3.78,0,0,0,6.69,22a4.49,4.49,0,0,0,.07,2.44,7.64,7.64,0,0,1,4.82,0,8.66,8.66,0,0,0,.36-1.81c0-.76-.73-1.35-1.33-1.72A21.25,21.25,0,0,0,8,19.84Z" transform="translate(-0.55 -0.32)"/><path class="cls-6" d="M11.14,22.41a1.69,1.69,0,0,1-3.38,0A1.69,1.69,0,0,1,11.14,22.41Z" transform="translate(-0.55 -0.32)"/><path class="cls-4" d="M8.93,21.74c-.32.43-1.09-.15-.76-.58S9.26,21.31,8.93,21.74Z" transform="translate(-0.55 -0.32)"/><path class="cls-6" d="M28.44,26.49c-.08-.09-.25-.21-.33-.31C28,29.66,25.39,32.64,23,34.93s-5.33,4.66-8.7,3.7a8.35,8.35,0,0,1-3.46-2.38,34.41,34.41,0,0,1-3-3.35,10.35,10.35,0,0,1-2.06-4.19c-.39-1.89.08-3.75.08-5.64s-.72-3.9-.65-5.92a16.51,16.51,0,0,1,1.45-5.81A2.76,2.76,0,0,1,6.25,11a18.93,18.93,0,0,0-1.59,5.14,18.45,18.45,0,0,0,.23,5.35c.25,1.83-.19,3.66-.17,5.49a9.73,9.73,0,0,0,1.39,4.81A21.82,21.82,0,0,0,9.39,35.9,14,14,0,0,0,13,39c3.37,1.73,6.78-.18,9.41-2.36,3-2.44,6.07-5.78,6.55-9.75A1.64,1.64,0,0,1,28.44,26.49Z" transform="translate(-0.55 -0.32)"/><path class="cls-6" d="M11.24,33.32l-.11-.47a1.94,1.94,0,0,1-.71-1.22c-.12-.46-.22-.58-.8-.85a3.74,3.74,0,0,0,1.77,3Z" transform="translate(-0.55 -0.32)"/><path class="cls-6" d="M20.8,31.53c-.84-1.6-3.92-.45-5.23-.25a11.89,11.89,0,0,1-6-.67c-.08,2.89,3,4.37,5.45,4.5a8.2,8.2,0,0,0,4.09-.73C20,33.9,21.43,32.73,20.8,31.53ZM11,33a3.86,3.86,0,0,1-.9-1.82,11.46,11.46,0,0,0,6.43.5,7.81,7.81,0,0,1,2.71-.28c1,.2,1,1.12.39,1.81a5.58,5.58,0,0,1-4,1.48A5.84,5.84,0,0,1,11,33Z" transform="translate(-0.55 -0.32)"/><path class="cls-6" d="M20.05,32a8.92,8.92,0,0,1-2.18.86c-.14,0-1.66.33-1.65.38,0,.39,3.6-.74,3.92-.9A1.31,1.31,0,0,0,20.05,32Z" transform="translate(-0.55 -0.32)"/><path class="cls-6" d="M12.18,33a2.11,2.11,0,0,1-1.75-1.93c-.17,0-.3-.17-.46-.23a2.48,2.48,0,0,0,1,1.9c.11.07,1.44.59,1.46.34A.58.58,0,0,0,12.18,33Z" transform="translate(-0.55 -0.32)"/><path class="cls-6" d="M11.14,32.72a.13.13,0,0,1-.07-.06,4,4,0,0,0,.24,1.07l.22.1A4.31,4.31,0,0,1,11.14,32.72Z" transform="translate(-0.55 -0.32)"/><path class="cls-6" d="M21.31,25.16a1.81,1.81,0,0,1,.49.18c.51-1.95.11-4.89-1.93-5.84a3.6,3.6,0,0,0-3.7.6,5,5,0,0,0-1.46,4.49l.15,0a5.35,5.35,0,0,1,1-3.78,3.22,3.22,0,0,1,3.57-1.2C21.43,20.43,21.71,23.31,21.31,25.16Z" transform="translate(-0.55 -0.32)"/><path class="cls-6" d="M6,24.74a6.29,6.29,0,0,1,6-.08A9.25,9.25,0,0,0,6,24.74Z" transform="translate(-0.55 -0.32)"/><path class="cls-6" d="M7.59,19.7a5.91,5.91,0,0,0-1.11,4.83l.42-.09a5.67,5.67,0,0,1,.2-3,6.15,6.15,0,0,1,.65-1.31c.07-.12.31-.3.2-.42A.26.26,0,0,0,7.59,19.7Z" transform="translate(-0.55 -0.32)"/><path class="cls-6" d="M8,20.24c-1.24-.69-1.89-.26-3,.42a2.79,2.79,0,0,1,.85-2.24c.89-.72,1.9-.11,2.77.33a7.83,7.83,0,0,1,2.43,1.66c.44.55.34,1.23.94,1.72A21.56,21.56,0,0,1,8,20.24Z" transform="translate(-0.55 -0.32)"/><path class="cls-6" d="M5,19.22c-.14-1.42-.14-2.09-.27-3.52a11.34,11.34,0,0,0-1.31-4.78,14.21,14.21,0,0,1,1.29.66c.1-1.08-.13-2.12,0-3.22a5.69,5.69,0,0,1-.66-1.71,9.7,9.7,0,0,0-.33,3.51,5.69,5.69,0,0,1-1.66-.57A19.9,19.9,0,0,1,4,15.34c.2,1.56.7,4.65.87,6.18C4.89,21.51,4.93,19.33,5,19.22Z" transform="translate(-0.55 -0.32)"/><path class="cls-6" d="M31.08,21.15a3.15,3.15,0,0,1,.31,1.36c.14-.72,0-1.82-.74-2.16s-1.66.56-1.92,1.31a3.25,3.25,0,0,0-.18,1.45c.06.46.34.75.34,1.23s-.12.67.21.92a.74.74,0,0,0,.95-.05.89.89,0,0,1-.68,0c-.27-.17-.19-.26-.18-.52s.23-.61.1-1A2.81,2.81,0,0,1,29,23C28.86,22,30.15,19.43,31.08,21.15Z" transform="translate(-0.55 -0.32)"/><path class="cls-6" d="M30.15,8.4a6.06,6.06,0,0,1,.62-.88C30,7.27,28.83,6.86,28,7.34A9.13,9.13,0,0,0,22.66,2a2.47,2.47,0,0,1-.28,1.7c-1.08-1-4.63-3-9.57-3.33a3.66,3.66,0,0,1,.34,2.31,16.91,16.91,0,0,0-12.6.54C2.37,4.28,3.18,6.49,3.82,8.4A7,7,0,0,0,6,11.69a6.27,6.27,0,0,0,3.93,1.5c3.08.23,5.82-.61,8.75-1.37a5.71,5.71,0,0,1,4.33.34,5.61,5.61,0,0,1,2.58,3.27c1,3.3-1.17,6.59-.18,9.94l2.09-1.79s0-.52,0-.54l-1.74,1.5c-.77-2.84,1.07-5.62.56-8.5A6,6,0,0,0,20.55,11a16.39,16.39,0,0,0-4.19.88,19.28,19.28,0,0,1-4.39.73c-2.74.1-5.42-.34-6.52-3.18C4.92,8,4.59,7.36,4.05,6,4,5.85,3,3.56,2.76,3.65a13.93,13.93,0,0,1,10.93.24,3.12,3.12,0,0,0,.49-2.34c3,.43,6.17,1.39,8.32,3.61a3.24,3.24,0,0,0,1-1.61,7.87,7.87,0,0,1,4,5.24,2.4,2.4,0,0,1,1.7-.61,5.81,5.81,0,0,0-.25.88,6.44,6.44,0,0,1,3.44,1.55l-1.77-.06c1.17,1.39,1.17,3.41.95,5.12a15,15,0,0,1-.86,3.3,1.59,1.59,0,0,1,.72.38,14.45,14.45,0,0,0,1-4.5,10.93,10.93,0,0,0-.31-3.47l1.37.09C33.34,10.35,32.41,9.16,30.15,8.4Z" transform="translate(-0.55 -0.32)"/><polygon class="cls-6" points="31.77 10.29 31.77 10.29 31.77 10.29 31.77 10.29"/><path class="cls-6" d="M14.07,20.25a3,3,0,0,0,0,1.73c1.56-.77,3-1.77,4.71-2.08,1.93-.34,3.34.7,4.55,2.05a.15.15,0,0,0,.26-.13c0-.28-.09-.57-.12-.7a5.93,5.93,0,0,0-.67-1.77,3.23,3.23,0,0,0-3-1.79A7.8,7.8,0,0,0,16.2,18.8,10.79,10.79,0,0,0,14.07,20.25Z" transform="translate(-0.55 -0.32)"/><path class="cls-6" d="M33,21.77c-.05-2.06-1.77-4.17-4-2.86a5.2,5.2,0,0,0-1.91,4.94l.31-.27c.2-1.34.44-3,1.69-3.78,1.49-.95,2.79.32,2.92,1.82A5.82,5.82,0,0,1,31,25.82a2.08,2.08,0,0,1-1.69.78,1.34,1.34,0,0,1-.85-.36,4.92,4.92,0,0,0-.44-.51c.32,1.88,2.37,1.83,3.47.66A6.77,6.77,0,0,0,33,21.77Z" transform="translate(-0.55 -0.32)"/><path class="cls-6" d="M19.91,22.29a1.88,1.88,0,0,1-3.75.17A1.88,1.88,0,0,1,19.91,22.29Z" transform="translate(-0.55 -0.32)"/><path class="cls-6" d="M11,28.41c-.25-.52.2-1.06.4-1.51a8.06,8.06,0,0,0,.47-1.59A11.67,11.67,0,0,0,12,22.13L11.76,22a13.25,13.25,0,0,1-.4,3.14,7.39,7.39,0,0,1-.58,1.5,9.09,9.09,0,0,0-.65,1.08c-.39,1.11,1.47,1.79,2.31,1.85A2.3,2.3,0,0,1,11,28.41Z" transform="translate(-0.55 -0.32)"/><path class="cls-6" d="M14.62,27.37A1,1,0,0,1,15,29.06c.34-.24.87-.72.66-1.19S15,27.41,14.62,27.37Z" transform="translate(-0.55 -0.32)"/><path class="cls-4" d="M17.43,21.77c-.34.52-1.26-.13-.91-.64S17.78,21.26,17.43,21.77Z" transform="translate(-0.55 -0.32)"/><path class="cls-6" d="M14.71,24.53a9.05,9.05,0,0,1,7.58,1,14.74,14.74,0,0,0-7.57-1Z" transform="translate(-0.55 -0.32)"/><path class="cls-3" d="M12.4,35.53s1.76,1.13,6.48.23a4.44,4.44,0,0,1-3.49,1.15C14.37,36.87,12.86,36.6,12.4,35.53Z" transform="translate(-0.55 -0.32)"/><text class="cls-7" transform="translate(37.76 25.19)">tru<tspan class="cls-8" x="27.99" y="0">e</tspan><tspan class="cls-9" x="39.67" y="0">g</tspan><tspan x="51.97" y="0">a</tspan><tspan class="cls-10" x="63" y="0">i</tspan><tspan x="68.02" y="0">ns</tspan></text></svg>