<svg id="Layer_1" data-name="Layer 1" xmlns="http://www.w3.org/2000/svg" viewBox="0 0 150.9 50"><defs><style>.cls-1{fill:#5b371a;}.cls-2{fill:#fed7b0;}.cls-3{fill:#e9bd90;}.cls-4,.cls-5{fill:#fff;}.cls-5{opacity:0.2;}.cls-6{fill:#3a2212;}.cls-7{font-size:24.13px;fill:#3eafa4;font-family:MuseoSansRounded-700, Museo Sans Rounded;}.cls-8{letter-spacing:0.01em;}.cls-9{letter-spacing:-0.01em;}.cls-10{letter-spacing:0em;}.cls-11{letter-spacing:-0.01em;}.cls-12{letter-spacing:0em;}</style></defs><title>truegains-logo-green</title><path class="cls-1" d="M6.66,26.67C5,25,5.18,21.91,5,19.76c-.18-2.53-.62-5.36-2.47-7.26a6.64,6.64,0,0,1,2.29.75,8.77,8.77,0,0,1,.55-4.12l5.12,3.57Z" transform="translate(-0.1)"/><path class="cls-2" d="M40.19,25.88a2.65,2.65,0,0,0-4.11-1.32c-1.57,1.11-1.84,3.22-1.94,5L33.33,28,34,25.07a28.3,28.3,0,0,0,.88-3.83,5.64,5.64,0,0,0-.62-2.19l-1.13-3.26-5-2.67a7.52,7.52,0,0,0-1.72-.92,7.82,7.82,0,0,0-1.92.23c-3.49.42-6.92.76-10.43,1l-5.85.36A14.06,14.06,0,0,0,6,19.93c-.17,1.08-.33,2.18-.4,3.28A15.67,15.67,0,0,0,6,26.75c.41,2.51-.18,5-.15,7.5a11.45,11.45,0,0,0,1.89,6,27.73,27.73,0,0,0,4.08,4.9,19.33,19.33,0,0,0,4.28,3.47c4.09,2.24,8.61.16,11.81-2.71a35.38,35.38,0,0,0,5-5.67,13.39,13.39,0,0,0,2.75-6.67c1.57,1.45,3.26-.69,3.92-1.95A7,7,0,0,0,40.19,25.88Z" transform="translate(-0.1)"/><path class="cls-3" d="M9,24.62l-1.52-.3L6,25.33a11.49,11.49,0,0,1,.48,2.83c0,1.06,0,2.12-.07,3.18A7,7,0,0,1,8,30.68a8.45,8.45,0,0,1,0-3.05,12.14,12.14,0,0,1,1.28-2.85Z" transform="translate(-0.1)"/><path class="cls-3" d="M13.23,35.19c-.23,2.17,4.9.7,5.81.41.09,1.4-3,1.62-3.84,1.57C14.12,37.1,12.92,36.46,13.23,35.19Z" transform="translate(-0.1)"/><path class="cls-3" d="M37.2,25.62a2.32,2.32,0,0,0-1,1.25,4.73,4.73,0,0,0-.33,1.28A2.68,2.68,0,0,0,36,29.58a2,2,0,0,1,.28,1.15c-.05,2,1.69-.05,2-.88.6-1.43.87-3.18-.28-4.38A2,2,0,0,0,37.2,25.62Z" transform="translate(-0.1)"/><path class="cls-3" d="M26.77,24.25l-5.18-.47-4.38,3.16a14.38,14.38,0,0,0,.91,3.88,10.78,10.78,0,0,1,6.53,0,6.54,6.54,0,0,1,3.78,2,6.77,6.77,0,0,1,1.3,4c.23,5.89-4.63,12.77-11,12.65l2.94-.38a3.41,3.41,0,0,0,1.59-.41l3-2a17.74,17.74,0,0,0,2.06-1.34A19,19,0,0,0,30,43.43c.62-.73,1.31-1.44,1.87-2.22a29.14,29.14,0,0,0,2.58-4.42,17.46,17.46,0,0,0,1.08-3c.16-.6-.16-.83-.48-1.35A5.26,5.26,0,0,1,34.36,29S31.81,31,31.81,31c-.43-2.65.34-5.25.64-7.88a7.89,7.89,0,0,0-.13-3.32,15,15,0,0,0-.82-2.3,10.76,10.76,0,0,0-1.17-1.45c-.87-1-2.46-1.51-3.68-2.12C26.65,14,26.66,20.62,26.77,24.25Z" transform="translate(-0.1)"/><path class="cls-4" d="M24.8,39.84c-.51-1.78-4.95-.38-6.13-.25a14.94,14.94,0,0,1-7-.88,4.67,4.67,0,0,0,2,3.53,8.67,8.67,0,0,0,4.5,1.33,7.93,7.93,0,0,0,4.51-.66C23.86,42.3,25.22,41.31,24.8,39.84Z" transform="translate(-0.1)"/><path class="cls-1" d="M34.29,29.15c-.79.67-1.67,1.56-2.45,2.24-1.29-3.53,1.23-7.16.73-10.76A7.51,7.51,0,0,0,25.85,14c-1.93-.12-3.78.62-5.61,1.12a25.76,25.76,0,0,1-5.35.94c-3.53.2-6.95-.62-8.76-4C4.57,9.06,4.41,5.7,1.2,3.9c4.61-2,10.71-2.45,15.35-.23.7-1.08.11-3,.11-3,8.28,1,11.39,4.42,11.39,4.42,1-.2.76-2.11.76-2.11a11.9,11.9,0,0,1,5.91,6.7,3.47,3.47,0,0,1,2.78-.31,3.26,3.26,0,0,0-.56,1.21c2.09.45,3.91,1.07,4.67,3.07-.71,0-1.42-.07-2.14-.08.91,1.42.88,3.33.76,4.95A17.52,17.52,0,0,1,39,23.87a2.86,2.86,0,0,0-3.29.72A6.59,6.59,0,0,0,34.29,29.15Z" transform="translate(-0.1)"/><path class="cls-5" d="M39,13.78c.69,0,1.38.06,2.07.07-.74-1.93-2.5-2.5-4.52-2.93a3,3,0,0,1,.54-1.17,3.33,3.33,0,0,0-2.69.3,11.5,11.5,0,0,0-5.72-6.48s.23,1.85-.74,2c0,0-3-3.31-11-4.28,0,0,.57,1.84-.11,2.89-4.55-2.1-10.34-1.75-14.86.22,2.92,1.63,3.23,4.5,4.51,7.25a6.42,6.42,0,0,0,3.24,3.44,12.53,12.53,0,0,0,5.34.65A5.74,5.74,0,0,1,11.06,14a7.52,7.52,0,0,1-1.8-3.23c-.49-1.66-1-4-2.54-5a14.29,14.29,0,0,1,10.91.59,2.48,2.48,0,0,0,1-2.55,25.47,25.47,0,0,1,9.44,3.87c1,0,1.42-1.51,1.45-1.73A16.14,16.14,0,0,1,34,11.74a6.16,6.16,0,0,1,1.61-1,2.5,2.5,0,0,0-.19,1,10.84,10.84,0,0,1,3.82.8l-2.17-.1c2.93,3.27,2,6.87,1.07,10.68l.42,0C39.38,20.43,40.66,16.44,39,13.78Z" transform="translate(-0.1)"/><path class="cls-4" d="M22.76,24.18a5.68,5.68,0,0,0-3.57,2c-.74,1-1.43,3.3-1,4.56a17.69,17.69,0,0,1,4-.33,20.47,20.47,0,0,1,4.36,1.09C26.93,28.28,26.77,24.25,22.76,24.18Z" transform="translate(-0.1)"/><path class="cls-4" d="M9.52,24.79a4.83,4.83,0,0,0-1.61,2.75A5.62,5.62,0,0,0,8,30.64a9.71,9.71,0,0,1,6.12.06,10.09,10.09,0,0,0,.46-2.3c0-1-.92-1.71-1.69-2.18A26.9,26.9,0,0,0,9.52,24.79Z" transform="translate(-0.1)"/><path class="cls-6" d="M13.56,28.07c0,2.76-4.29,2.76-4.29,0S13.56,25.3,13.56,28.07Z" transform="translate(-0.1)"/><path class="cls-4" d="M10.75,27.21c-.41.55-1.38-.19-1-.73S11.16,26.67,10.75,27.21Z" transform="translate(-0.1)"/><path class="cls-6" d="M35.54,33.24a5.06,5.06,0,0,1-.43-.39C35,37.28,31.66,41.06,28.62,44c-2.88,2.74-6.77,5.93-11,4.7a10.42,10.42,0,0,1-4.39-3,44.42,44.42,0,0,1-3.87-4.25A13.23,13.23,0,0,1,6.7,36.06c-.5-2.4.09-4.76.1-7.17S5.88,23.94,6,21.38A20.81,20.81,0,0,1,7.81,14a3,3,0,0,1-.47-.4,24.56,24.56,0,0,0-2,6.54,22.75,22.75,0,0,0,.3,6.79c.31,2.33-.25,4.65-.22,7A12.37,12.37,0,0,0,7.16,40a28.44,28.44,0,0,0,4.17,5.18,17.73,17.73,0,0,0,4.6,3.95c4.29,2.19,8.62-.23,12-3,3.75-3.1,7.71-7.35,8.32-12.39A2.07,2.07,0,0,1,35.54,33.24Z" transform="translate(-0.1)"/><path class="cls-6" d="M13.69,41.92l-.15-.59a2.49,2.49,0,0,1-.9-1.56c-.15-.58-.28-.74-1-1.08a4.78,4.78,0,0,0,2.25,3.87Z" transform="translate(-0.1)"/><path class="cls-6" d="M25.83,39.65c-1.07-2-5-.58-6.65-.32a15,15,0,0,1-7.64-.85c-.1,3.67,3.79,5.54,6.92,5.71a10.22,10.22,0,0,0,5.2-.93C24.85,42.66,26.63,41.17,25.83,39.65Zm-12.5,1.81a4.81,4.81,0,0,1-1.15-2.31,14.5,14.5,0,0,0,8.17.63,10.35,10.35,0,0,1,3.45-.35c1.31.25,1.24,1.42.49,2.3-1.17,1.36-3.31,1.82-5,1.88A7.38,7.38,0,0,1,13.33,41.46Z" transform="translate(-0.1)"/><path class="cls-6" d="M24.88,40.22a11.48,11.48,0,0,1-2.78,1.09c-.18,0-2.1.43-2.09.49,0,.49,4.57-.94,5-1.15A3,3,0,0,0,24.88,40.22Z" transform="translate(-0.1)"/><path class="cls-6" d="M14.87,41.53a2.71,2.71,0,0,1-2.22-2.46c-.21-.06-.38-.22-.58-.29a3.11,3.11,0,0,0,1.24,2.41c.13.1,1.82.76,1.84.44A.63.63,0,0,0,14.87,41.53Z" transform="translate(-0.1)"/><path class="cls-6" d="M13.56,41.16l-.1-.07a5.75,5.75,0,0,0,.31,1.35l.29.12A5,5,0,0,1,13.56,41.16Z" transform="translate(-0.1)"/><path class="cls-6" d="M26.48,31.55a2.45,2.45,0,0,1,.62.23c.64-2.47.13-6.21-2.45-7.42a4.56,4.56,0,0,0-4.7.77,6.35,6.35,0,0,0-1.85,5.71l.18,0A6.81,6.81,0,0,1,19.57,26c1.08-1.28,2.87-2.24,4.53-1.54C26.63,25.55,27,29.21,26.48,31.55Z" transform="translate(-0.1)"/><path class="cls-6" d="M7.05,31a8,8,0,0,1,7.59-.1A11.68,11.68,0,0,0,7.05,31Z" transform="translate(-0.1)"/><path class="cls-6" d="M9,24.62a7.52,7.52,0,0,0-1.4,6.14l.52-.12a7.3,7.3,0,0,1,.26-3.82,8.54,8.54,0,0,1,.82-1.66c.09-.14.4-.37.27-.53A.34.34,0,0,0,9,24.62Z" transform="translate(-0.1)"/><path class="cls-6" d="M9.53,25.31C8,24.43,7.12,25,5.75,25.84c.11-1.12.14-2.1,1.08-2.85,1.13-.91,2.42-.14,3.52.43a9.67,9.67,0,0,1,3.09,2.1c.56.7.43,1.56,1.19,2.19A27.8,27.8,0,0,1,9.53,25.31Z" transform="translate(-0.1)"/><path class="cls-6" d="M5.75,24c-.17-1.81-.18-2.66-.33-4.47a14.42,14.42,0,0,0-1.67-6.07,13.93,13.93,0,0,1,1.63.84c.13-1.38-.15-2.7,0-4.1A7.28,7.28,0,0,1,4.58,8a12.66,12.66,0,0,0-.41,4.46,7.07,7.07,0,0,1-2.12-.73,24.94,24.94,0,0,1,2.46,7.31c.25,2,.88,5.9,1.11,7.85C5.62,26.91,5.67,24.15,5.75,24Z" transform="translate(-0.1)"/><path class="cls-6" d="M38.89,26.46a4.13,4.13,0,0,1,.39,1.73c.18-.91,0-2.31-.94-2.74-1.16-.52-2.11.71-2.43,1.66A4,4,0,0,0,35.67,29c.08.58.43,1,.43,1.57s-.14.85.27,1.16a.94.94,0,0,0,1.21-.06,1.14,1.14,0,0,1-.87,0c-.34-.22-.24-.34-.22-.67s.28-.76.12-1.23a4.43,4.43,0,0,1-.38-.93C36.07,27.52,37.71,24.28,38.89,26.46Z" transform="translate(-0.1)"/><path class="cls-6" d="M37.71,10.26a7.66,7.66,0,0,1,.78-1.11c-1-.33-2.46-.84-3.48-.23a11.6,11.6,0,0,0-6.82-6.86,3.2,3.2,0,0,1-.36,2.17C26.47,2.91,22,.35,15.67,0a4.58,4.58,0,0,1,.44,2.93c-5.12-2-11-1.44-16,.68C2.42,5,3.45,7.83,4.26,10.27A8.8,8.8,0,0,0,7,14.44a7.92,7.92,0,0,0,5,1.91c3.9.29,7.39-.78,11.11-1.74a7.21,7.21,0,0,1,5.49.43,7.17,7.17,0,0,1,3.29,4.15c1.3,4.2-1.49,8.38-.24,12.63,0,0,2.62-2.23,2.66-2.28s0-.65,0-.68l-2.21,1.91c-1-3.61,1.36-7.15.71-10.8a7.55,7.55,0,0,0-7.33-6.44,20.27,20.27,0,0,0-5.32,1.12,24.55,24.55,0,0,1-5.58.92c-3.48.13-6.88-.43-8.29-4C5.65,9.81,5.23,8.94,4.55,7.22,4.47,7,3.2,4.11,2.91,4.23a17.64,17.64,0,0,1,13.89.31c.89-.88.68-3,.62-3C21.2,2.11,25.26,3.33,28,6.14a4.07,4.07,0,0,0,1.22-2,10,10,0,0,1,5.05,6.66A3,3,0,0,1,36.41,10a7.33,7.33,0,0,0-.31,1.11,8.15,8.15,0,0,1,4.36,2L38.21,13c1.49,1.78,1.49,4.34,1.21,6.5,0,.15-.6,3.61-1.09,4.2a2,2,0,0,1,.91.49,18.18,18.18,0,0,0,1.31-5.72A13.89,13.89,0,0,0,40.16,14l1.74.12C41.76,12.74,40.58,11.22,37.71,10.26Z" transform="translate(-0.1)"/><polygon class="cls-6" points="40.36 13.08 40.36 13.08 40.36 13.08 40.36 13.08"/><path class="cls-6" d="M17.27,25.32a3.8,3.8,0,0,0,0,2.19c2-1,3.76-2.25,6-2.64,2.46-.43,4.25.89,5.78,2.6a.19.19,0,0,0,.33-.16c-.05-.35-.11-.73-.15-.88a7.36,7.36,0,0,0-.85-2.26,4.1,4.1,0,0,0-3.77-2.27A10,10,0,0,0,20,23.48,13.72,13.72,0,0,0,17.27,25.32Z" transform="translate(-0.1)"/><path class="cls-6" d="M41.36,27.25c-.07-2.62-2.26-5.3-5-3.64-1.83,1.1-2.88,4.23-2.44,6.28l.4-.35c.25-1.7.56-3.79,2.15-4.8,1.9-1.2,3.54.41,3.71,2.31a7.44,7.44,0,0,1-1.42,5.35,2.63,2.63,0,0,1-2.14,1,1.69,1.69,0,0,1-1.08-.47,5.43,5.43,0,0,0-.56-.64c.4,2.39,3,2.32,4.41.84A8.62,8.62,0,0,0,41.36,27.25Z" transform="translate(-0.1)"/><path class="cls-6" d="M24.7,27.91c.14,3.08-4.63,3.28-4.77.22S24.56,24.83,24.7,27.91Z" transform="translate(-0.1)"/><path class="cls-6" d="M13.42,35.68c-.32-.66.25-1.34.5-1.92a8.86,8.86,0,0,0,.6-2,14.31,14.31,0,0,0,.11-4,2.57,2.57,0,0,0-.29-.15,16.64,16.64,0,0,1-.51,4,9.1,9.1,0,0,1-.73,1.9,10.3,10.3,0,0,0-.83,1.38c-.49,1.4,1.87,2.27,2.93,2.35A2.87,2.87,0,0,1,13.42,35.68Z" transform="translate(-0.1)"/><path class="cls-6" d="M18,34.36a1.23,1.23,0,0,1,.48,2.15c.43-.31,1.1-.91.83-1.51C19.1,34.56,18.4,34.42,18,34.36Z" transform="translate(-0.1)"/><path class="cls-4" d="M21.55,27.25c-.44.66-1.6-.17-1.16-.81S22,26.6,21.55,27.25Z" transform="translate(-0.1)"/><path class="cls-6" d="M18.09,30.76a11.49,11.49,0,0,1,9.63,1.33,18.62,18.62,0,0,0-9.62-1.25Z" transform="translate(-0.1)"/><path class="cls-3" d="M15.15,44.73s2.24,1.44,8.23.29c-1,1.22-2.93,1.52-4.42,1.46C17.66,46.43,15.75,46.09,15.15,44.73Z" transform="translate(-0.1)"/><text class="cls-7" transform="translate(47.51 31.5)">tru<tspan class="cls-8" x="32.16" y="0">e</tspan><tspan class="cls-9" x="45.58" y="0">g</tspan><tspan class="cls-10" x="59.72" y="0">a</tspan><tspan class="cls-11" x="72.38" y="0">i</tspan><tspan class="cls-12" x="78.15" y="0">ns</tspan></text></svg>