<svg id="Layer_1" data-name="Layer 1" xmlns="http://www.w3.org/2000/svg" viewBox="0 0 32.9 39.36"><defs><style>.cls-1{fill:#5b371a;}.cls-2{fill:#fed7b0;}.cls-3{fill:#e9bd90;}.cls-4,.cls-5{fill:#fff;}.cls-5{opacity:0.2;}.cls-6{fill:#3a2212;}</style></defs><title>truegains-mascot-web</title><path class="cls-1" d="M5.17,21C3.82,19.7,4,17.25,3.87,15.55c-.14-2-.49-4.22-1.94-5.71a5,5,0,0,1,1.8.59,6.88,6.88,0,0,1,.43-3.24l4,2.8Z"/><path class="cls-2" d="M31.55,20.37a2.09,2.09,0,0,0-3.23-1c-1.24.87-1.45,2.53-1.53,3.93L26.15,22l.53-2.28a22.76,22.76,0,0,0,.7-3A4.79,4.79,0,0,0,26.89,15L26,12.43,22,10.32a6.35,6.35,0,0,0-1.36-.72,6,6,0,0,0-1.51.18c-2.75.34-5.45.6-8.21.77l-4.6.28a11.05,11.05,0,0,0-1.69,4.85c-.13.86-.26,1.72-.31,2.59a12.38,12.38,0,0,0,.29,2.78C5,23,4.52,25,4.54,27A9.06,9.06,0,0,0,6,31.72a21.94,21.94,0,0,0,3.21,3.86,15.52,15.52,0,0,0,3.36,2.73c3.23,1.76,6.78.12,9.3-2.14a27.71,27.71,0,0,0,3.93-4.45A10.63,10.63,0,0,0,28,26.46c1.23,1.15,2.57-.54,3.09-1.53A5.5,5.5,0,0,0,31.55,20.37Z"/><path class="cls-3" d="M7,19.38l-1.2-.23-1.2.79A8.9,8.9,0,0,1,5,22.17C5,23,5,23.84,5,24.67a5.84,5.84,0,0,1,1.23-.52,6.46,6.46,0,0,1,0-2.4,10,10,0,0,1,1-2.25Z"/><path class="cls-3" d="M10.33,27.7c-.18,1.71,3.86.55,4.58.32.07,1.1-2.4,1.28-3,1.24C11,29.21,10.09,28.7,10.33,27.7Z"/><path class="cls-3" d="M29.2,20.17a1.76,1.76,0,0,0-.78,1,3.6,3.6,0,0,0-.27,1,2.18,2.18,0,0,0,.13,1.13,1.51,1.51,0,0,1,.22.9c0,1.61,1.33,0,1.6-.7a3.11,3.11,0,0,0-.21-3.44A1.48,1.48,0,0,0,29.2,20.17Z"/><path class="cls-3" d="M21,19.09l-4.08-.37-3.44,2.49a11.17,11.17,0,0,0,.71,3.05,8.54,8.54,0,0,1,5.15,0,5.21,5.21,0,0,1,3,1.6,5.35,5.35,0,0,1,1,3.14c.18,4.64-3.65,10.05-8.62,10l2.3-.29a2.77,2.77,0,0,0,1.26-.33l2.37-1.55a13.19,13.19,0,0,0,1.62-1,14.29,14.29,0,0,0,1.28-1.52c.49-.58,1-1.14,1.48-1.76A23.14,23.14,0,0,0,27,29a14.46,14.46,0,0,0,.85-2.39c.12-.48-.13-.66-.38-1.06a4.12,4.12,0,0,1-.54-2.7s-2,1.62-2,1.62c-.33-2.09.27-4.13.52-6.21a6.55,6.55,0,0,0-.11-2.61,11.13,11.13,0,0,0-.65-1.81,8.35,8.35,0,0,0-.92-1.14A8.56,8.56,0,0,0,20.9,11S20.91,16.23,21,19.09Z"/><path class="cls-4" d="M19.44,31.36c-.4-1.4-3.89-.3-4.82-.19a11.92,11.92,0,0,1-5.52-.7,3.68,3.68,0,0,0,1.58,2.78,6.88,6.88,0,0,0,3.54,1,6.25,6.25,0,0,0,3.55-.53C18.7,33.29,19.77,32.52,19.44,31.36Z"/><path class="cls-1" d="M26.91,22.94c-.62.53-1.31,1.23-1.93,1.76-1-2.77,1-5.63.58-8.46A5.92,5.92,0,0,0,20.27,11a13.74,13.74,0,0,0-4.42.88,20.75,20.75,0,0,1-4.21.74c-2.78.16-5.47-.49-6.9-3.17C3.51,7.13,3.39,4.49.86,3.07,4.49,1.49,9.3,1.14,13,2.89A3.38,3.38,0,0,0,13,.54C19.55,1.33,22,4,22,4c.79-.15.59-1.66.59-1.66a9.37,9.37,0,0,1,4.66,5.28,2.69,2.69,0,0,1,2.18-.25,2.55,2.55,0,0,0-.44,1c1.65.35,3.08.84,3.68,2.41L31,10.7a6.5,6.5,0,0,1,.6,3.89,13.81,13.81,0,0,1-1,4.2,2.26,2.26,0,0,0-2.59.57A5.16,5.16,0,0,0,26.91,22.94Z"/><path class="cls-5" d="M30.59,10.85l1.63.05c-.58-1.52-2-2-3.56-2.3a2.45,2.45,0,0,1,.42-.93A2.65,2.65,0,0,0,27,7.91a9,9,0,0,0-4.51-5.1s.19,1.46-.58,1.61c0,0-2.36-2.61-8.67-3.37a3.24,3.24,0,0,1-.09,2.27,14.91,14.91,0,0,0-11.7.17C3.72,4.78,4,7,5,9.21a5.06,5.06,0,0,0,2.55,2.7,9.84,9.84,0,0,0,4.21.51A4.5,4.5,0,0,1,8.62,11,5.87,5.87,0,0,1,7.21,8.46c-.39-1.31-.8-3.15-2-4A11.24,11.24,0,0,1,13.8,5a2,2,0,0,0,.82-2,20,20,0,0,1,7.43,3c.79,0,1.11-1.19,1.14-1.37A12.73,12.73,0,0,1,26.7,9.24,4.92,4.92,0,0,1,28,8.46a1.9,1.9,0,0,0-.14.82,8.22,8.22,0,0,1,3,.62l-1.7-.08c2.3,2.58,1.61,5.41.83,8.41l.34,0C30.92,16.08,31.92,12.94,30.59,10.85Z"/><path class="cls-4" d="M17.83,19A4.51,4.51,0,0,0,15,20.64a4.8,4.8,0,0,0-.75,3.59A14.23,14.23,0,0,1,17.45,24a16.2,16.2,0,0,1,3.44.86C21.11,22.26,21,19.09,17.83,19Z"/><path class="cls-4" d="M7.41,19.51a3.84,3.84,0,0,0-1.27,2.17,4.49,4.49,0,0,0,.07,2.44,7.64,7.64,0,0,1,4.82.05,8.66,8.66,0,0,0,.36-1.81c0-.76-.73-1.35-1.34-1.72A22.06,22.06,0,0,0,7.41,19.51Z"/><path class="cls-6" d="M10.59,22.09a1.69,1.69,0,0,1-3.38,0A1.69,1.69,0,0,1,10.59,22.09Z"/><path class="cls-4" d="M8.38,21.42c-.32.43-1.09-.15-.76-.58S8.71,21,8.38,21.42Z"/><path class="cls-6" d="M27.89,26.17c-.08-.09-.25-.21-.33-.31-.13,3.48-2.72,6.46-5.11,8.74s-5.33,4.67-8.7,3.71a8.35,8.35,0,0,1-3.46-2.38,34.41,34.41,0,0,1-3-3.35,10.41,10.41,0,0,1-2.06-4.19c-.39-1.89.08-3.75.08-5.65s-.73-3.9-.65-5.91A16.51,16.51,0,0,1,6.07,11a2.3,2.3,0,0,1-.37-.32,19.1,19.1,0,0,0-1.59,5.15,18.12,18.12,0,0,0,.23,5.35c.25,1.83-.19,3.66-.17,5.49A9.76,9.76,0,0,0,5.56,31.5a21.82,21.82,0,0,0,3.28,4.08,14,14,0,0,0,3.62,3.11c3.37,1.73,6.78-.18,9.41-2.36,2.95-2.44,6.07-5.78,6.55-9.75A1.79,1.79,0,0,1,27.89,26.17Z"/><path class="cls-6" d="M10.69,33l-.11-.47a1.94,1.94,0,0,1-.71-1.22c-.12-.46-.22-.58-.8-.85a3.75,3.75,0,0,0,1.76,3Z"/><path class="cls-6" d="M20.25,31.21c-.84-1.6-3.92-.46-5.24-.25a11.86,11.86,0,0,1-6-.67c-.08,2.89,3,4.36,5.45,4.5a8.09,8.09,0,0,0,4.09-.74C19.48,33.58,20.88,32.41,20.25,31.21Zm-9.84,1.42a3.78,3.78,0,0,1-.9-1.81,11.55,11.55,0,0,0,6.43.5A7.78,7.78,0,0,1,18.65,31c1,.19,1,1.12.39,1.8a5.54,5.54,0,0,1-4,1.49A5.8,5.8,0,0,1,10.41,32.63Z"/><path class="cls-6" d="M19.5,31.66a8.92,8.92,0,0,1-2.18.86c-.14,0-1.66.33-1.65.38,0,.39,3.6-.74,3.92-.9A1.31,1.31,0,0,0,19.5,31.66Z"/><path class="cls-6" d="M11.63,32.69a2.11,2.11,0,0,1-1.75-1.93c-.17-.05-.3-.18-.46-.24a2.48,2.48,0,0,0,1,1.91c.11.07,1.44.59,1.46.34A.58.58,0,0,0,11.63,32.69Z"/><path class="cls-6" d="M10.59,32.4a.13.13,0,0,1-.07-.06,4.35,4.35,0,0,0,.23,1.07l.23.09A4.24,4.24,0,0,1,10.59,32.4Z"/><path class="cls-6" d="M20.76,24.83a1.84,1.84,0,0,1,.49.19c.51-1.95.11-4.89-1.93-5.84a3.57,3.57,0,0,0-3.7.6,5,5,0,0,0-1.46,4.49l.15,0a5.35,5.35,0,0,1,1-3.78,3.23,3.23,0,0,1,3.57-1.21C20.88,20.11,21.16,23,20.76,24.83Z"/><path class="cls-6" d="M5.47,24.41a6.32,6.32,0,0,1,6-.07A9.25,9.25,0,0,0,5.47,24.41Z"/><path class="cls-6" d="M7,19.38a5.91,5.91,0,0,0-1.11,4.83l.41-.09a5.71,5.71,0,0,1,.21-3A6.66,6.66,0,0,1,7.2,19.8c.07-.11.31-.29.2-.42A.26.26,0,0,0,7,19.38Z"/><path class="cls-6" d="M7.42,19.92c-1.24-.69-1.9-.26-3,.42a2.83,2.83,0,0,1,.85-2.25c.89-.71,1.9-.1,2.76.34a7.76,7.76,0,0,1,2.44,1.66c.44.55.33,1.23.94,1.72A21.56,21.56,0,0,1,7.42,19.92Z"/><path class="cls-6" d="M4.45,18.9c-.14-1.43-.14-2.09-.27-3.52A11.34,11.34,0,0,0,2.87,10.6a12.84,12.84,0,0,1,1.28.66C4.26,10.18,4,9.14,4.19,8a6,6,0,0,1-.67-1.71A9.89,9.89,0,0,0,3.2,9.84a5.42,5.42,0,0,1-1.66-.58A20,20,0,0,1,3.47,15c.2,1.55.69,4.65.87,6.18C4.34,21.18,4.38,19,4.45,18.9Z"/><path class="cls-6" d="M30.53,20.82a3.39,3.39,0,0,1,.31,1.37c.14-.72,0-1.82-.74-2.16s-1.66.56-1.92,1.31A3.2,3.2,0,0,0,28,22.78c.06.46.34.76.34,1.24s-.12.67.21.92a.74.74,0,0,0,.95-.05.94.94,0,0,1-.68,0c-.27-.17-.2-.27-.18-.53s.23-.6.1-1a3,3,0,0,1-.3-.74C28.31,21.66,29.6,19.11,30.53,20.82Z"/><path class="cls-6" d="M29.6,8.08a6.06,6.06,0,0,1,.62-.88c-.81-.26-1.94-.66-2.74-.18a9.17,9.17,0,0,0-5.37-5.4,2.54,2.54,0,0,1-.28,1.71c-1.08-1-4.63-3-9.57-3.33a3.65,3.65,0,0,1,.34,2.31A16.91,16.91,0,0,0,0,2.85C1.82,4,2.63,6.17,3.27,8.08a7.09,7.09,0,0,0,2.15,3.29,6.25,6.25,0,0,0,3.93,1.5c3.08.23,5.82-.61,8.75-1.37a5.71,5.71,0,0,1,4.33.34A5.56,5.56,0,0,1,25,15.1c1,3.31-1.17,6.6-.18,9.94l2.09-1.78s0-.52,0-.55l-1.74,1.51c-.77-2.84,1.07-5.63.56-8.5A6,6,0,0,0,20,10.65a16.3,16.3,0,0,0-4.19.88,19.28,19.28,0,0,1-4.39.73c-2.74.1-5.42-.34-6.53-3.18C4.37,7.72,4,7,3.5,5.68c-.06-.15-1.06-2.45-1.29-2.35a13.88,13.88,0,0,1,10.93.24,3.12,3.12,0,0,0,.49-2.34c3,.43,6.17,1.39,8.32,3.6a3.17,3.17,0,0,0,.95-1.6,7.85,7.85,0,0,1,4,5.24,2.38,2.38,0,0,1,1.7-.61,5.5,5.5,0,0,0-.25.88,6.44,6.44,0,0,1,3.44,1.55L30,10.23c1.17,1.39,1.17,3.41.95,5.11a14.69,14.69,0,0,1-.86,3.3,1.59,1.59,0,0,1,.71.39,14.25,14.25,0,0,0,1-4.5,11,11,0,0,0-.31-3.48l1.37.09C32.79,10,31.86,8.83,29.6,8.08Z"/><polygon class="cls-6" points="31.77 10.29 31.77 10.29 31.77 10.29 31.77 10.29"/><path class="cls-6" d="M13.52,19.93a3,3,0,0,0,0,1.72c1.55-.76,3-1.77,4.71-2.07,1.93-.34,3.34.7,4.55,2.05a.15.15,0,0,0,.26-.13c0-.28-.09-.58-.12-.7A5.93,5.93,0,0,0,22.26,19a3.23,3.23,0,0,0-3-1.79,7.8,7.8,0,0,0-3.64,1.24A10.1,10.1,0,0,0,13.52,19.93Z"/><path class="cls-6" d="M32.47,21.45c0-2.06-1.78-4.17-3.95-2.86a5.23,5.23,0,0,0-1.92,4.94l.32-.27c.2-1.34.44-3,1.69-3.79,1.49-.94,2.79.32,2.92,1.83a5.78,5.78,0,0,1-1.12,4.2,2.07,2.07,0,0,1-1.68.78,1.3,1.3,0,0,1-.85-.37c-.06-.05-.4-.52-.44-.5.32,1.88,2.37,1.83,3.47.66A6.77,6.77,0,0,0,32.47,21.45Z"/><path class="cls-6" d="M19.36,22a1.88,1.88,0,0,1-3.75.17A1.88,1.88,0,0,1,19.36,22Z"/><path class="cls-6" d="M10.48,28.08c-.25-.51.2-1,.39-1.5A7.47,7.47,0,0,0,11.35,25a11.69,11.69,0,0,0,.09-3.18l-.23-.12a12.76,12.76,0,0,1-.41,3.14,6.55,6.55,0,0,1-.57,1.49,12.15,12.15,0,0,0-.66,1.09c-.38,1.1,1.48,1.79,2.32,1.85A2.31,2.31,0,0,1,10.48,28.08Z"/><path class="cls-6" d="M14.07,27a1,1,0,0,1,.38,1.7c.34-.25.87-.72.66-1.19S14.4,27.09,14.07,27Z"/><path class="cls-4" d="M16.88,21.45c-.35.52-1.26-.13-.91-.64S17.23,20.94,16.88,21.45Z"/><path class="cls-6" d="M14.16,24.21a9.06,9.06,0,0,1,7.58,1.05,14.66,14.66,0,0,0-7.58-1Z"/><path class="cls-3" d="M11.85,35.21s1.76,1.13,6.47.23a4.4,4.4,0,0,1-3.48,1.15C13.82,36.55,12.31,36.28,11.85,35.21Z"/></svg>